# xmcd
#
# Track frame offsets:
#	150
#	14485
#	29122
#	39972
#	48700
#	60097
#	71180
#	79265
#	88837
#	106560
#	116475
#	128237
#	140240
#
# Disc length: 2046 seconds
#
# Revision: 0
# Processed by: cddbd v1.5.2PL0 Copyright (c) Steve Scherf et al.
# Submitted via: EasyCDDAExtractor 16.0.8.2
#
DISCID=b607fc0d
DTITLE=Αρλέτα - Δώδεκα και ένα τραγούδια του Μ. Χατζιδάκι
DYEAR=1995
DGENRE=Έντεχνη νεώτερη
TTITLE0=Τριαντάφυλλο στο στήθος [Μ. Χατζιδάκις]
TTITLE1=Η κρασογιώργαινα [Ν. Καζαντζάκης-Γερ. Σταύρου]
TTITLE2=Το φεγγαράκι [Ν. Γκάτσος]
TTITLE3=Μιά φορά κι έναν καιρό [Οδ. Ελύτης]
TTITLE4=Τώρα που πας στην ξενητειά [Ν. Γκάτσος]
TTITLE5=Το τραγούδι της Ευριδίκης [Μ. Χατζιδάκις]
TTITLE6=Το πουλί [Μίνως Αργυράκης]
TTITLE7=Κι αν θα διψάσεις για νερό [Ν. Γκάτσος]
TTITLE8=Ήσουν παιδί σαν τον Χριστό [Ν. Γκάτσος]
TTITLE9=Το πέλαγο είναι βαθύ [Μ. Χατζιδάκις]
TTITLE10=Μέσ' σ' αυτή τη βάρκα [Μ. Χατζιδάκις]
TTITLE11=Ανάγκη να σε πάρω εγώ [Οδ. Ελύτης]
TTITLE12=Γύρνα φτερωτή του μύλου [Ν. Γκάτσος]
EXTD=
EXTT0=
EXTT1=
EXTT2=
EXTT3=
EXTT4=
EXTT5=
EXTT6=
EXTT7=
EXTT8=
EXTT9=
EXTT10=
EXTT11=
EXTT12=
PLAYORDER=
